<svg width="48" height="48" viewBox="0 0 48 48" fill="none" xmlns="http://www.w3.org/2000/svg">
<circle cx="24" cy="24" r="24" fill="#F5F8FC"/>
<path d="M33.75 20.0001C33.75 20.4101 33.41 20.7501 33 20.7501H15C14.59 20.7501 14.25 20.4101 14.25 20.0001C14.25 19.5901 14.59 19.2501 15 19.2501H16.02L16.4 17.4401C16.76 15.6901 17.51 14.0801 20.49 14.0801H27.51C30.49 14.0801 31.24 15.6901 31.6 17.4401L31.98 19.2501H33C33.41 19.2501 33.75 19.5901 33.75 20.0001Z" fill="#122D97"/>
<path d="M34.1796 25.66C34.0296 24.01 33.5896 22.25 30.3796 22.25H17.6196C14.4096 22.25 13.9796 24.01 13.8196 25.66L13.2596 31.75C13.1896 32.51 13.4396 33.27 13.9596 33.84C14.4896 34.42 15.2396 34.75 16.0396 34.75H17.9196C19.5396 34.75 19.8496 33.82 20.0496 33.21L20.2496 32.61C20.4796 31.92 20.5396 31.75 21.4396 31.75H26.5596C27.4596 31.75 27.4896 31.85 27.7496 32.61L27.9496 33.21C28.1496 33.82 28.4596 34.75 30.0796 34.75H31.9596C32.7496 34.75 33.5096 34.42 34.0396 33.84C34.5596 33.27 34.8096 32.51 34.7396 31.75L34.1796 25.66ZM20.9996 27.75H17.9996C17.5896 27.75 17.2496 27.41 17.2496 27C17.2496 26.59 17.5896 26.25 17.9996 26.25H20.9996C21.4096 26.25 21.7496 26.59 21.7496 27C21.7496 27.41 21.4096 27.75 20.9996 27.75ZM29.9996 27.75H26.9996C26.5896 27.75 26.2496 27.41 26.2496 27C26.2496 26.59 26.5896 26.25 26.9996 26.25H29.9996C30.4096 26.25 30.7496 26.59 30.7496 27C30.7496 27.41 30.4096 27.75 29.9996 27.75Z" fill="#122D97"/>
</svg>
