<svg width="48" height="48" viewBox="0 0 48 48" fill="none" xmlns="http://www.w3.org/2000/svg">
<circle cx="24" cy="24" r="24" fill="#F5F8FC"/>
<path d="M14 23.46V28.46C14 30.75 15.85 32.6 18.14 32.6H29.85C32.14 32.6 34 30.74 34 28.45V23.46C34 22.79 33.46 22.25 32.79 22.25H15.21C14.54 22.25 14 22.79 14 23.46ZM20 29.25H18C17.59 29.25 17.25 28.91 17.25 28.5C17.25 28.09 17.59 27.75 18 27.75H20C20.41 27.75 20.75 28.09 20.75 28.5C20.75 28.91 20.41 29.25 20 29.25ZM26.5 29.25H22.5C22.09 29.25 21.75 28.91 21.75 28.5C21.75 28.09 22.09 27.75 22.5 27.75H26.5C26.91 27.75 27.25 28.09 27.25 28.5C27.25 28.91 26.91 29.25 26.5 29.25Z" fill="#122D97"/>
<path d="M25.5 16.6104V19.5404C25.5 20.2104 24.96 20.7504 24.29 20.7504H15.21C14.53 20.7504 14 20.1904 14 19.5204C14.01 18.3904 14.46 17.3604 15.21 16.6104C15.96 15.8604 17 15.4004 18.14 15.4004H24.29C24.96 15.4004 25.5 15.9404 25.5 16.6104Z" fill="#122D97"/>
<path d="M31.97 14H29.03C27.76 14 27 14.76 27 16.03V18.97C27 20.24 27.76 21 29.03 21H31.97C33.24 21 34 20.24 34 18.97V16.03C34 14.76 33.24 14 31.97 14ZM32.63 16.45L30.26 19.22C30.17 19.33 30.03 19.4 29.89 19.4C29.88 19.4 29.88 19.4 29.87 19.4C29.73 19.4 29.6 19.35 29.5 19.25L28.4 18.17C28.2 17.97 28.2 17.64 28.4 17.44C28.6 17.24 28.93 17.23 29.13 17.44L29.83 18.13L31.83 15.79C32.02 15.57 32.34 15.55 32.56 15.73C32.79 15.91 32.81 16.24 32.63 16.45Z" fill="#122D97"/>
</svg>
