<svg width="48" height="48" viewBox="0 0 48 48" fill="none" xmlns="http://www.w3.org/2000/svg">
<circle cx="24" cy="24" r="24" fill="#F5F8FC"/>
<path d="M32.1 21.2204C30.29 21.2204 29.55 19.9404 30.45 18.3704C30.97 17.4604 30.66 16.3004 29.75 15.7804L28.02 14.7904C27.23 14.3204 26.21 14.6004 25.74 15.3904L25.63 15.5804C24.73 17.1504 23.25 17.1504 22.34 15.5804L22.23 15.3904C21.78 14.6004 20.76 14.3204 19.97 14.7904L18.24 15.7804C17.33 16.3004 17.02 17.4704 17.54 18.3804C18.45 19.9404 17.71 21.2204 15.9 21.2204C14.86 21.2204 14 22.0704 14 23.1204V24.8804C14 25.9204 14.85 26.7804 15.9 26.7804C17.71 26.7804 18.45 28.0604 17.54 29.6304C17.02 30.5404 17.33 31.7004 18.24 32.2204L19.97 33.2104C20.76 33.6804 21.78 33.4004 22.25 32.6104L22.36 32.4204C23.26 30.8504 24.74 30.8504 25.65 32.4204L25.76 32.6104C26.23 33.4004 27.25 33.6804 28.04 33.2104L29.77 32.2204C30.68 31.7004 30.99 30.5304 30.47 29.6304C29.56 28.0604 30.3 26.7804 32.11 26.7804C33.15 26.7804 34.01 25.9304 34.01 24.8804V23.1204C34 22.0804 33.15 21.2204 32.1 21.2204ZM24 27.2504C22.21 27.2504 20.75 25.7904 20.75 24.0004C20.75 22.2104 22.21 20.7504 24 20.7504C25.79 20.7504 27.25 22.2104 27.25 24.0004C27.25 25.7904 25.79 27.2504 24 27.2504Z" fill="#122D97"/>
</svg>
